<?xml version="1.0" encoding="utf-8"?>
<!-- Generator: Adobe Illustrator 17.1.0, SVG Export Plug-In . SVG Version: 6.00 Build 0)  -->
<!DOCTYPE svg PUBLIC "-//W3C//DTD SVG 1.1//EN" "http://www.w3.org/Graphics/SVG/1.1/DTD/svg11.dtd" [
	<!ENTITY ns_flows "http://ns.adobe.com/Flows/1.0/">
	<!ENTITY ns_extend "http://ns.adobe.com/Extensibility/1.0/">
	<!ENTITY ns_ai "http://ns.adobe.com/AdobeIllustrator/10.0/">
	<!ENTITY ns_graphs "http://ns.adobe.com/Graphs/1.0/">
]>
<svg version="1.1" id="Layer_1" xmlns:x="&ns_extend;" xmlns:i="&ns_ai;" xmlns:graph="&ns_graphs;"
	 xmlns="http://www.w3.org/2000/svg" xmlns:xlink="http://www.w3.org/1999/xlink" xmlns:a="http://ns.adobe.com/AdobeSVGViewerExtensions/3.0/"
	 x="0px" y="0px" width="32px" height="32px" viewBox="0 0 32 32" enable-background="new 0 0 32 32" xml:space="preserve">
<g  a:adobe-knockout="true">
	<g>
		<circle fill="#117EBF"  a:adobe-knockout="false" cx="0" cy="0" r="1"/>
		<circle fill="#117EBF"  a:adobe-knockout="false" cx="5.3" cy="0" r="1"/>
		<circle fill="#117EBF"  a:adobe-knockout="false" cx="10.7" cy="0" r="1"/>
		<circle fill="#117EBF"  a:adobe-knockout="false" cx="16" cy="0" r="1"/>
		<circle fill="#117EBF"  a:adobe-knockout="false" cx="21.3" cy="0" r="1"/>
		<circle fill="#117EBF"  a:adobe-knockout="false" cx="26.7" cy="0" r="1"/>
		<circle fill="#117EBF"  a:adobe-knockout="false" cx="32" cy="0" r="1"/>
	</g>
	<g>
		<circle fill="#117EBF"  a:adobe-knockout="false" cx="0" cy="5.3" r="1"/>
		<circle fill="#117EBF"  a:adobe-knockout="false" cx="5.3" cy="5.3" r="1"/>
		<circle fill="#117EBF"  a:adobe-knockout="false" cx="10.7" cy="5.3" r="1"/>
		<circle fill="#117EBF"  a:adobe-knockout="false" cx="16" cy="5.3" r="1"/>
		<circle fill="#117EBF"  a:adobe-knockout="false" cx="21.3" cy="5.3" r="1"/>
		<circle fill="#117EBF"  a:adobe-knockout="false" cx="26.7" cy="5.3" r="1"/>
		<circle fill="#117EBF"  a:adobe-knockout="false" cx="32" cy="5.3" r="1"/>
	</g>
	<g>
		<circle fill="#117EBF"  a:adobe-knockout="false" cx="0" cy="10.7" r="1"/>
		<circle fill="#117EBF"  a:adobe-knockout="false" cx="5.3" cy="10.7" r="1"/>
		<circle fill="#117EBF"  a:adobe-knockout="false" cx="10.7" cy="10.7" r="1"/>
		<circle fill="#117EBF"  a:adobe-knockout="false" cx="16" cy="10.7" r="1"/>
		<circle fill="#117EBF"  a:adobe-knockout="false" cx="21.3" cy="10.7" r="1"/>
		<circle fill="#117EBF"  a:adobe-knockout="false" cx="26.7" cy="10.7" r="1"/>
		<circle fill="#117EBF"  a:adobe-knockout="false" cx="32" cy="10.7" r="1"/>
	</g>
	<g>
		<circle fill="#117EBF"  a:adobe-knockout="false" cx="0" cy="16" r="1"/>
		<circle fill="#117EBF"  a:adobe-knockout="false" cx="5.3" cy="16" r="1"/>
		<circle fill="#117EBF"  a:adobe-knockout="false" cx="10.7" cy="16" r="1"/>
		<circle fill="#117EBF"  a:adobe-knockout="false" cx="16" cy="16" r="1"/>
		<circle fill="#117EBF"  a:adobe-knockout="false" cx="21.3" cy="16" r="1"/>
		<circle fill="#117EBF"  a:adobe-knockout="false" cx="26.7" cy="16" r="1"/>
		<circle fill="#117EBF"  a:adobe-knockout="false" cx="32" cy="16" r="1"/>
	</g>
	<g>
		<circle fill="#117EBF"  a:adobe-knockout="false" cx="0" cy="21.3" r="1"/>
		<circle fill="#117EBF"  a:adobe-knockout="false" cx="5.3" cy="21.3" r="1"/>
		<circle fill="#117EBF"  a:adobe-knockout="false" cx="10.7" cy="21.3" r="1"/>
		<circle fill="#117EBF"  a:adobe-knockout="false" cx="16" cy="21.3" r="1"/>
		<circle fill="#117EBF"  a:adobe-knockout="false" cx="21.3" cy="21.3" r="1"/>
		<circle fill="#117EBF"  a:adobe-knockout="false" cx="26.7" cy="21.3" r="1"/>
		<circle fill="#117EBF"  a:adobe-knockout="false" cx="32" cy="21.3" r="1"/>
	</g>
	<g>
		<circle fill="#117EBF"  a:adobe-knockout="false" cx="0" cy="26.7" r="1"/>
		<circle fill="#117EBF"  a:adobe-knockout="false" cx="5.3" cy="26.7" r="1"/>
		<circle fill="#117EBF"  a:adobe-knockout="false" cx="10.7" cy="26.7" r="1"/>
		<circle fill="#117EBF"  a:adobe-knockout="false" cx="16" cy="26.7" r="1"/>
		<circle fill="#117EBF"  a:adobe-knockout="false" cx="21.3" cy="26.7" r="1"/>
		<circle fill="#117EBF"  a:adobe-knockout="false" cx="26.7" cy="26.7" r="1"/>
		<circle fill="#117EBF"  a:adobe-knockout="false" cx="32" cy="26.7" r="1"/>
	</g>
	<g>
		<circle fill="#117EBF"  a:adobe-knockout="false" cx="0" cy="32" r="1"/>
		<circle fill="#117EBF"  a:adobe-knockout="false" cx="5.3" cy="32" r="1"/>
		<circle fill="#117EBF"  a:adobe-knockout="false" cx="10.7" cy="32" r="1"/>
		<circle fill="#117EBF"  a:adobe-knockout="false" cx="16" cy="32" r="1"/>
		<circle fill="#117EBF"  a:adobe-knockout="false" cx="21.3" cy="32" r="1"/>
		<circle fill="#117EBF"  a:adobe-knockout="false" cx="26.7" cy="32" r="1"/>
		<circle fill="#117EBF"  a:adobe-knockout="false" cx="32" cy="32" r="1"/>
	</g>
</g>
<g  a:adobe-knockout="true">
	<g>
		<circle fill="#117EBF"  a:adobe-knockout="false" cx="2.5" cy="2.5" r="1"/>
		<circle fill="#117EBF"  a:adobe-knockout="false" cx="7.8" cy="2.5" r="1"/>
		<circle fill="#117EBF"  a:adobe-knockout="false" cx="13.2" cy="2.5" r="1"/>
		<circle fill="#117EBF"  a:adobe-knockout="false" cx="18.5" cy="2.5" r="1"/>
		<circle fill="#117EBF"  a:adobe-knockout="false" cx="23.8" cy="2.5" r="1"/>
		<circle fill="#117EBF"  a:adobe-knockout="false" cx="29.2" cy="2.5" r="1"/>
		<circle fill="#117EBF"  a:adobe-knockout="false" cx="34.5" cy="2.5" r="1"/>
	</g>
	<g>
		<circle fill="#117EBF"  a:adobe-knockout="false" cx="2.5" cy="7.8" r="1"/>
		<circle fill="#117EBF"  a:adobe-knockout="false" cx="7.8" cy="7.8" r="1"/>
		<circle fill="#117EBF"  a:adobe-knockout="false" cx="13.2" cy="7.8" r="1"/>
		<circle fill="#117EBF"  a:adobe-knockout="false" cx="18.5" cy="7.8" r="1"/>
		<circle fill="#117EBF"  a:adobe-knockout="false" cx="23.8" cy="7.8" r="1"/>
		<circle fill="#117EBF"  a:adobe-knockout="false" cx="29.2" cy="7.8" r="1"/>
		<circle fill="#117EBF"  a:adobe-knockout="false" cx="34.5" cy="7.8" r="1"/>
	</g>
	<g>
		<circle fill="#117EBF"  a:adobe-knockout="false" cx="2.5" cy="13.2" r="1"/>
		<circle fill="#117EBF"  a:adobe-knockout="false" cx="7.8" cy="13.2" r="1"/>
		<circle fill="#117EBF"  a:adobe-knockout="false" cx="13.2" cy="13.2" r="1"/>
		<circle fill="#117EBF"  a:adobe-knockout="false" cx="18.5" cy="13.2" r="1"/>
		<circle fill="#117EBF"  a:adobe-knockout="false" cx="23.8" cy="13.2" r="1"/>
		<circle fill="#117EBF"  a:adobe-knockout="false" cx="29.2" cy="13.2" r="1"/>
		<circle fill="#117EBF"  a:adobe-knockout="false" cx="34.5" cy="13.2" r="1"/>
	</g>
	<g>
		<circle fill="#117EBF"  a:adobe-knockout="false" cx="2.5" cy="18.5" r="1"/>
		<circle fill="#117EBF"  a:adobe-knockout="false" cx="7.8" cy="18.5" r="1"/>
		<circle fill="#117EBF"  a:adobe-knockout="false" cx="13.2" cy="18.5" r="1"/>
		<circle fill="#117EBF"  a:adobe-knockout="false" cx="18.5" cy="18.5" r="1"/>
		<circle fill="#117EBF"  a:adobe-knockout="false" cx="23.8" cy="18.5" r="1"/>
		<circle fill="#117EBF"  a:adobe-knockout="false" cx="29.2" cy="18.5" r="1"/>
		<circle fill="#117EBF"  a:adobe-knockout="false" cx="34.5" cy="18.5" r="1"/>
	</g>
	<g>
		<circle fill="#117EBF"  a:adobe-knockout="false" cx="2.5" cy="23.8" r="1"/>
		<circle fill="#117EBF"  a:adobe-knockout="false" cx="7.8" cy="23.8" r="1"/>
		<circle fill="#117EBF"  a:adobe-knockout="false" cx="13.2" cy="23.8" r="1"/>
		<circle fill="#117EBF"  a:adobe-knockout="false" cx="18.5" cy="23.8" r="1"/>
		<circle fill="#117EBF"  a:adobe-knockout="false" cx="23.8" cy="23.8" r="1"/>
		<circle fill="#117EBF"  a:adobe-knockout="false" cx="29.2" cy="23.8" r="1"/>
		<circle fill="#117EBF"  a:adobe-knockout="false" cx="34.5" cy="23.8" r="1"/>
	</g>
	<g>
		<circle fill="#117EBF"  a:adobe-knockout="false" cx="2.5" cy="29.2" r="1"/>
		<circle fill="#117EBF"  a:adobe-knockout="false" cx="7.8" cy="29.2" r="1"/>
		<circle fill="#117EBF"  a:adobe-knockout="false" cx="13.2" cy="29.2" r="1"/>
		<circle fill="#117EBF"  a:adobe-knockout="false" cx="18.5" cy="29.2" r="1"/>
		<circle fill="#117EBF"  a:adobe-knockout="false" cx="23.8" cy="29.2" r="1"/>
		<circle fill="#117EBF"  a:adobe-knockout="false" cx="29.2" cy="29.2" r="1"/>
		<circle fill="#117EBF"  a:adobe-knockout="false" cx="34.5" cy="29.2" r="1"/>
	</g>
	<g>
		<circle fill="#117EBF"  a:adobe-knockout="false" cx="2.5" cy="34.5" r="1"/>
		<circle fill="#117EBF"  a:adobe-knockout="false" cx="7.8" cy="34.5" r="1"/>
		<circle fill="#117EBF"  a:adobe-knockout="false" cx="13.2" cy="34.5" r="1"/>
		<circle fill="#117EBF"  a:adobe-knockout="false" cx="18.5" cy="34.5" r="1"/>
		<circle fill="#117EBF"  a:adobe-knockout="false" cx="23.8" cy="34.5" r="1"/>
		<circle fill="#117EBF"  a:adobe-knockout="false" cx="29.2" cy="34.5" r="1"/>
		<circle fill="#117EBF"  a:adobe-knockout="false" cx="34.5" cy="34.5" r="1"/>
	</g>
</g>
</svg>
