<?xml version="1.0" encoding="utf-8"?>
<!-- Generator: Adobe Illustrator 17.1.0, SVG Export Plug-In . SVG Version: 6.00 Build 0)  -->
<!DOCTYPE svg PUBLIC "-//W3C//DTD SVG 1.1//EN" "http://www.w3.org/Graphics/SVG/1.1/DTD/svg11.dtd" [
	<!ENTITY ns_flows "http://ns.adobe.com/Flows/1.0/">
	<!ENTITY ns_extend "http://ns.adobe.com/Extensibility/1.0/">
	<!ENTITY ns_ai "http://ns.adobe.com/AdobeIllustrator/10.0/">
	<!ENTITY ns_graphs "http://ns.adobe.com/Graphs/1.0/">
]>
<svg version="1.1" xmlns:x="&ns_extend;" xmlns:i="&ns_ai;" xmlns:graph="&ns_graphs;"
	 xmlns="http://www.w3.org/2000/svg" xmlns:xlink="http://www.w3.org/1999/xlink" xmlns:a="http://ns.adobe.com/AdobeSVGViewerExtensions/3.0/"
	 x="0px" y="0px" width="100px" height="100px" viewBox="0 0 100 100" enable-background="new 0 0 100 100" xml:space="preserve">
<g id="Layer_1" display="none">
	<g display="inline">
		<path fill="#FFFFFF" d="M48.2,63.6c0.1-0.8-0.2-1.6-0.9-2c-0.3-0.2-0.7-0.3-1.1-0.3c-0.4,0-0.8,0.1-1.1,0.3l-19.5,13l15.6-18.3
			c0.5-0.6,0.6-1.4,0.3-2.1c-0.3-0.7-1-1.2-1.7-1.2l-24.4-1.6l26.5-5.7c0.6-0.1,1.1-0.5,1.4-1.1c0.3-0.6,0.3-1.2,0-1.8l-10-19.5
			L49.7,37c0.4,0.3,0.8,0.5,1.3,0.5c0.1,0,0.3,0,0.4,0c0.6-0.1,1.1-0.5,1.4-1l11.6-22.6L62,31.2c-0.1,0.8,0.3,1.6,0.9,2
			c0.3,0.2,0.7,0.3,1,0.3c0.4,0,0.8-0.1,1.1-0.4l14.9-10.4l-8.5,14c-0.4,0.6-0.4,1.4-0.1,2s1,1,1.7,1l17.9,0.5l-17,9
			c-0.7,0.3-1.1,1-1.1,1.8s0.4,1.4,1,1.8l13.8,7.5l-19.4-1.5c-0.1,0-0.1,0-0.2,0c-0.7,0-1.3,0.3-1.7,0.9c-0.4,0.6-0.4,1.4,0,2.1
			L78,81.6l-17.1-12c-0.3-0.2-0.8-0.4-1.1-0.4c-0.6,0-1.2,0.3-1.6,0.8l-14.8,20L48.2,63.6z"/>
		<path d="M60.8,25.1L60,31c-0.2,1.6,0.5,3.1,1.9,3.9c0.6,0.4,1.4,0.6,2.1,0.6c0.8,0,1.6-0.2,2.3-0.7l7.1-5l-3.6,5.8
			c-0.7,1.2-0.8,2.7-0.1,4c0.7,1.3,2,2.1,3.4,2.1l10.3,0.3l-10.3,5.4c-1.3,0.7-2.1,2-2.1,3.5c0,1.5,0.8,2.8,2.1,3.5l5.6,3l-10.1-0.8
			c-0.1,0-0.2,0-0.3,0c-1.4,0-2.6,0.7-3.4,1.9c-0.8,1.3-0.8,2.8-0.1,4.1l6.9,12L62.1,68c-0.7-0.5-1.5-0.7-2.3-0.7
			c-1.2,0-2.4,0.6-3.2,1.6L46.8,82l3.3-18c0.3-1.6-0.4-3.2-1.7-4.1c-0.7-0.4-1.4-0.7-2.2-0.7c-0.8,0-1.5,0.2-2.2,0.7l-7.5,5l6.3-7.3
			c1-1.2,1.2-2.8,0.6-4.2C42.8,52,41.5,51.1,40,51l-10.1-0.7l12.5-2.7c1.2-0.3,2.2-1.1,2.8-2.2c0.5-1.1,0.5-2.4-0.1-3.5l-5.5-10.8
			l8.9,7.4c0.7,0.6,1.6,0.9,2.6,0.9c0.3,0,0.5,0,0.8-0.1c1.2-0.2,2.2-1,2.8-2.1L60.8,25.1 M67.9,2.5L51,35.5l-24-20l14.5,28.2
			L1,52.5L39.8,55l-25,29.2l31.5-21l-6.5,35l20-27l24.5,17.2l-16-27.8L97,63L75,51l23.8-12.5l-25.5-0.8l13.5-22.1L64,31.5L67.9,2.5
			L67.9,2.5z"/>
	</g>
</g>
<g id="Layer_2" display="none">
	<g display="inline">
		<path fill="#F5F514" d="M50.2,97.2c-1,0-1.8-0.7-1.9-1.6l-3.5-19.8l-8.9,16.7c-0.4,0.7-1,1-1.7,1c-0.2,0-0.4,0-0.7-0.1
			c-0.9-0.3-1.5-1.3-1.3-2.2l4.2-21.5L23,78.3c-0.3,0.2-0.7,0.3-1.1,0.3c-0.5,0-1-0.2-1.4-0.6c-0.7-0.7-0.8-1.7-0.2-2.5l11.4-16.9
			L12.1,57c-0.9-0.1-1.7-0.8-1.8-1.7c-0.1-0.9,0.4-1.8,1.3-2.1l19.9-7.4L19.1,32.5c-0.6-0.7-0.7-1.6-0.2-2.4c0.4-0.6,1-0.9,1.7-0.9
			c0.2,0,0.4,0,0.6,0.1L35.4,34l-5.8-20.7c-0.3-0.9,0.2-1.9,1.1-2.3c0.3-0.1,0.6-0.2,0.8-0.2c0.6,0,1.2,0.3,1.6,0.8L43,25.4L45.3,4
			c0.1-1,0.9-1.7,1.9-1.8c0,0,0,0,0.1,0c1,0,1.8,0.7,1.9,1.6l3.5,19.8L61.5,7c0.3-0.7,1-1,1.7-1c0.2,0,0.4,0,0.5,0.1
			c0.9,0.3,1.5,1.1,1.4,2l-1.4,20.1l10.5-7c0.3-0.2,0.7-0.3,1.1-0.3c0.4,0,0.8,0.1,1.2,0.4c0.7,0.5,0.9,1.4,0.7,2.2l-5.8,17.3
			l15.9,2.1c0.9,0.1,1.6,0.8,1.7,1.7s-0.3,1.7-1.2,2.1l-15.4,6.9l12.6,13.4c0.6,0.7,0.7,1.6,0.2,2.4c-0.4,0.6-1,0.9-1.7,0.9
			c-0.2,0-0.4,0-0.6-0.1l-14.6-4.6l1.9,19.8c0.1,0.9-0.4,1.7-1.3,2c-0.2,0.1-0.5,0.1-0.7,0.1c-0.6,0-1.2-0.3-1.6-0.8L56.6,72.3
			l-4.5,23.3C51.9,96.5,51.1,97.2,50.2,97.2C50.2,97.2,50.2,97.2,50.2,97.2z"/>
		<path d="M47.2,4.2l4.5,25.5L63.3,7.9L61.6,32l13.9-9.2l-6.5,19.6l18.3,2.5l-18,8l14.5,15.4l-17.5-5.5l2.2,22.8L55.6,67.4
			l-5.4,27.8l-4.5-25.5L34.1,91.6l5.1-26.1L22,76.7L35.3,57l-23.1-2L35,46.6L20.5,31.2L38.3,37l-6.7-24.3l12.9,18.1L47.2,4.2
			 M63.3,7.9L63.3,7.9 M75.4,22.8L75.4,22.8 M47.2,0.3c0,0-0.1,0-0.1,0c-2,0.1-3.6,1.6-3.8,3.5L41.6,20l-6.8-9.6
			c-0.8-1.1-2-1.7-3.2-1.7c-0.6,0-1.2,0.1-1.7,0.4c-1.7,0.8-2.6,2.8-2.1,4.6l4.8,17.2l-10.8-3.5c-0.4-0.1-0.8-0.2-1.2-0.2
			c-1.3,0-2.6,0.7-3.3,1.8c-1,1.5-0.8,3.5,0.5,4.8L28,45l-17.2,6.4c-1.7,0.6-2.8,2.4-2.5,4.2c0.3,1.8,1.7,3.2,3.6,3.4l16.4,1.4
			l-9.5,14.1c-1.1,1.6-0.9,3.6,0.4,5c0.8,0.8,1.8,1.2,2.8,1.2c0.7,0,1.5-0.2,2.1-0.6l9.5-6.1l-3.3,16.9c-0.4,1.9,0.7,3.8,2.6,4.5
			c0.4,0.2,0.9,0.2,1.3,0.2c1.4,0,2.8-0.8,3.5-2.1l6.2-11.7l2.5,14.2c0.3,1.9,2,3.2,3.9,3.3c0,0,0,0,0,0c1.9,0,3.5-1.3,3.9-3.2
			l3.6-18.8l7.5,10.6c0.8,1.1,2,1.7,3.2,1.7c0.5,0,0.9-0.1,1.4-0.3c1.7-0.6,2.7-2.3,2.5-4.1l-1.6-16.8L82.5,72
			c0.4,0.1,0.8,0.2,1.2,0.2c1.3,0,2.6-0.7,3.3-1.8c1-1.5,0.8-3.5-0.5-4.8L75.9,54.2l12.9-5.7c1.6-0.7,2.6-2.4,2.3-4.2
			c-0.3-1.7-1.6-3.1-3.4-3.4l-13.6-1.8l5-14.9c0.2-0.4,0.3-0.9,0.3-1.4c0-2.2-1.8-3.9-3.9-3.9c0,0,0,0,0,0c0,0,0,0-0.1,0
			c0,0,0,0,0,0c0,0,0,0,0,0c0,0,0,0,0,0l0,0c-0.8,0-1.5,0.3-2.2,0.7l-7.1,4.7l1.1-15.9c0-0.1,0-0.3,0-0.4c0-2.1-1.6-3.8-3.7-3.9
			c-0.1,0-0.2,0-0.2,0c-0.2,0-0.3,0-0.5,0c-0.7,0.1-1.3,0.3-1.8,0.7c-0.3,0.2-0.6,0.5-0.9,0.9c-0.1,0.2-0.2,0.4-0.3,0.6l-6.2,11.6
			L51.1,3.5C50.8,1.6,49.1,0.3,47.2,0.3L47.2,0.3z"/>
	</g>
	<g display="inline">
		<path fill="#F5F514" d="M50.2,96.9c-0.8,0-1.5-0.6-1.6-1.4l-3.6-20.7l-9.3,17.5c-0.3,0.6-0.9,0.9-1.5,0.9c-0.2,0-0.4,0-0.6-0.1
			c-0.8-0.3-1.2-1.1-1.1-1.9L36.8,69l-14,9c-0.3,0.2-0.6,0.3-0.9,0.3c-0.4,0-0.9-0.2-1.2-0.5c-0.6-0.6-0.6-1.4-0.2-2.1l11.7-17.3
			l-20.2-1.7c-0.8-0.1-1.4-0.7-1.5-1.4c-0.1-0.8,0.3-1.5,1.1-1.8L32,45.9L19.3,32.3c-0.5-0.6-0.6-1.4-0.2-2c0.3-0.5,0.8-0.8,1.4-0.8
			c0.2,0,0.3,0,0.5,0.1l14.9,4.9L30,13.2c-0.2-0.8,0.2-1.6,0.9-1.9c0.2-0.1,0.5-0.2,0.7-0.2c0.5,0,1,0.2,1.4,0.7l10.3,14.5L45.6,4
			c0.1-0.8,0.8-1.5,1.6-1.5c0,0,0,0,0.1,0c0.8,0,1.5,0.6,1.6,1.4l3.6,20.7l9.3-17.5c0.3-0.6,0.9-0.9,1.5-0.9c0.2,0,0.3,0,0.5,0.1
			C64.5,6.5,65,7.2,64.9,8l-1.5,20.7l11.1-7.3c0.3-0.2,0.6-0.3,0.9-0.3c0.4,0,0.7,0.1,1,0.3c0.6,0.4,0.8,1.2,0.6,1.8L71.1,41
			l16.3,2.2c0.7,0.1,1.3,0.7,1.4,1.4c0.1,0.7-0.3,1.5-1,1.8l-15.8,7l12.9,13.7c0.5,0.6,0.6,1.4,0.2,2c-0.3,0.5-0.8,0.8-1.4,0.8
			c-0.2,0-0.3,0-0.5-0.1l-15.1-4.8l2,20.3c0.1,0.7-0.4,1.5-1.1,1.7c-0.2,0.1-0.4,0.1-0.6,0.1c-0.5,0-1-0.2-1.4-0.7L56.5,71.6
			l-4.6,24C51.7,96.3,51,96.9,50.2,96.9C50.2,96.9,50.2,96.9,50.2,96.9z"/>
		<path fill="#F5F514" d="M47.2,4.2l4.5,25.5L63.3,7.9L61.6,32l13.9-9.2l-6.5,19.6l18.3,2.5l-18,8l14.5,15.4l-17.5-5.5l2.2,22.8
			L55.6,67.4l-5.4,27.8l-4.5-25.5L34.1,91.6l5.1-26.1L22,76.7L35.3,57l-23.1-2L35,46.6L20.5,31.2L38.3,37l-6.7-24.3l12.9,18.1
			L47.2,4.2 M63.3,7.9L63.3,7.9 M75.4,22.8L75.4,22.8 M47.2,0.9c0,0-0.1,0-0.1,0c-1.7,0.1-3,1.3-3.2,3L42,21.7l-7.8-10.9
			c-0.6-0.9-1.7-1.4-2.7-1.4c-0.5,0-1,0.1-1.4,0.3c-1.5,0.7-2.2,2.3-1.8,3.9l5.1,18.3L21.5,28c-0.3-0.1-0.7-0.2-1-0.2
			c-1.1,0-2.2,0.6-2.8,1.5c-0.8,1.3-0.7,2.9,0.4,4.1l11,11.8l-18,6.7c-1.5,0.5-2.3,2-2.1,3.6c0.2,1.5,1.5,2.7,3,2.9l17.4,1.5
			l-10.1,15c-0.9,1.3-0.7,3.1,0.4,4.2c0.6,0.7,1.5,1,2.4,1c0.6,0,1.2-0.2,1.8-0.5l10.7-6.9l-3.6,18.4c-0.3,1.6,0.6,3.2,2.1,3.8
			c0.4,0.1,0.7,0.2,1.1,0.2c1.2,0,2.3-0.7,2.9-1.8l7-13.3l2.8,16c0.3,1.6,1.6,2.7,3.2,2.7c0,0,0,0,0,0c1.6,0,3-1.1,3.3-2.7l3.9-20.2
			l8.4,11.8c0.6,0.9,1.7,1.4,2.7,1.4c0.4,0,0.8-0.1,1.2-0.2c1.4-0.5,2.3-1.9,2.1-3.4L70,67.4l12.7,4c0.3,0.1,0.7,0.2,1,0.2
			c1.1,0,2.2-0.6,2.8-1.6c0.8-1.3,0.6-2.9-0.4-4L74.9,54l13.7-6.1c1.4-0.6,2.2-2,1.9-3.5c-0.2-1.5-1.4-2.6-2.8-2.8l-14.3-1.9
			L78.5,24c0.1-0.4,0.2-0.8,0.2-1.2c0-1.8-1.5-3.3-3.3-3.3h0c-0.7,0-1.3,0.2-1.9,0.6l-8.2,5.4l1.2-17.2c0-0.1,0-0.2,0-0.4
			c0-1.8-1.4-3.2-3.1-3.3c-0.1,0-0.1,0-0.2,0c-0.1,0-0.3,0-0.4,0c-0.6,0.1-1.1,0.3-1.6,0.6c-0.3,0.2-0.5,0.4-0.7,0.7
			c-0.1,0.1-0.2,0.3-0.3,0.5l-7,13.2l-2.8-16C50.2,2.1,48.8,0.9,47.2,0.9L47.2,0.9z"/>
	</g>
	<g display="inline">
		<path fill="#FFFFFF" d="M56.4,85.9c-0.6,0-1.1-0.3-1.3-0.9l-5.6-13.3L36.7,84.9c-0.3,0.3-0.6,0.4-1,0.4c-0.2,0-0.5-0.1-0.7-0.2
			c-0.6-0.3-0.8-1-0.7-1.6l4.1-16.1L19.1,78.1c-0.2,0.1-0.5,0.2-0.7,0.2c-0.4,0-0.8-0.2-1.1-0.5c-0.4-0.5-0.4-1.3,0-1.8l12.2-14.5
			L11.9,65c-0.1,0-0.2,0-0.3,0c-0.6,0-1.1-0.4-1.3-0.9c-0.2-0.7,0-1.4,0.7-1.7l17.9-9.8l-14.5-4.5c-0.6-0.2-1.1-0.8-1-1.5
			s0.6-1.2,1.3-1.3l18.8-1.8L22.8,28.4c-0.4-0.5-0.3-1.3,0.1-1.8c0.3-0.3,0.7-0.5,1.1-0.5c0.2,0,0.5,0.1,0.7,0.2l17.2,9.8l1.9-16.7
			c0.1-0.6,0.6-1.2,1.2-1.2c0.1,0,0.1,0,0.2,0c0.6,0,1.1,0.3,1.3,0.9l5.4,13.2L63,15.9c0.3-0.4,0.7-0.6,1.2-0.6c0.2,0,0.4,0,0.6,0.1
			c0.6,0.3,1,1,0.8,1.6l-4,15.6l16.8-11.2c0.2-0.2,0.5-0.2,0.8-0.2c0.4,0,0.8,0.2,1.1,0.5c0.5,0.5,0.5,1.3,0,1.9L68,38.1l17.7-3.7
			c0.1,0,0.2,0,0.3,0c0.6,0,1.1,0.3,1.3,0.9c0.3,0.6,0.1,1.3-0.5,1.7L71.6,47.9l11.6,3.5c0.6,0.2,1,0.7,1,1.3c0,0.6-0.3,1.2-0.9,1.4
			l-15.6,6.1l8,12.6c0.3,0.5,0.3,1.2-0.1,1.7c-0.3,0.3-0.7,0.5-1.1,0.5c-0.2,0-0.4,0-0.6-0.1l-14.1-7l-1.9,16.8
			c-0.1,0.6-0.6,1.2-1.2,1.2C56.6,85.9,56.5,85.9,56.4,85.9z"/>
		<path d="M64.2,16.7L64.2,16.7 M64.2,16.7l-4.9,19.2l19.9-13.3L64.3,40.3L86,35.9L68.4,48.5l14.4,4.3l-17.3,6.7l9,14.1l-15.9-7.8
			l-2.2,18.8L50,69.3L35.7,83.9l4.9-19.2L18.4,76.8l14.9-17.7l-21.7,4.5l20.9-11.4l-17.7-5.5l21.2-2L23.9,27.6l19,10.8l2.2-18.8
			l6.4,15.6L64.2,16.7 M79.2,22.7L79.2,22.7 M86,35.9L86,35.9 M64.2,13.9c-0.1,0-0.2,0-0.2,0c-0.5,0-0.9,0.2-1.3,0.4
			c-0.3,0.2-0.5,0.4-0.7,0.6c-0.1,0.1-0.1,0.1-0.2,0.2l-9.7,14.1l-4.4-10.7c-0.4-1.1-1.5-1.8-2.6-1.8c-0.1,0-0.3,0-0.4,0
			c-1.3,0.2-2.3,1.2-2.4,2.5l-1.7,14.5l-15.3-8.7c-0.4-0.3-0.9-0.4-1.4-0.4c-0.8,0-1.6,0.3-2.1,0.9c-0.9,1-1,2.5-0.2,3.6l9.2,13
			l-16.4,1.6c-1.3,0.1-2.4,1.2-2.6,2.5c-0.1,1.3,0.7,2.6,2,3l11.3,3.5l-15,8.2c-1.2,0.7-1.8,2.2-1.3,3.5c0.4,1.1,1.5,1.9,2.7,1.9
			c0.2,0,0.4,0,0.6-0.1l13.7-2.8L16.2,75c-0.9,1-0.9,2.6,0,3.6c0.6,0.7,1.4,1,2.2,1c0.5,0,0.9-0.1,1.4-0.4l16.4-9L33,83.2
			c-0.3,1.2,0.2,2.6,1.4,3.2c0.4,0.2,0.9,0.4,1.4,0.4c0.7,0,1.5-0.3,2-0.9l11.3-11.5l4.7,11.3c0.4,1.1,1.5,1.7,2.6,1.7
			c0.1,0,0.3,0,0.4,0c1.3-0.2,2.3-1.2,2.4-2.5L61,70l12.3,6.1c0.4,0.2,0.8,0.3,1.3,0.3c0.8,0,1.6-0.3,2.1-0.9c0.9-1,1-2.4,0.3-3.4
			l-7.1-11.1l14-5.4c1.1-0.4,1.9-1.6,1.8-2.8c0-1.2-0.9-2.3-2-2.6l-8.8-2.6l12.8-9.2c0.7-0.5,1.2-1.4,1.2-2.3c0-1.5-1.2-2.8-2.7-2.8
			c0,0-0.1,0-0.1,0c-0.1,0-0.2,0-0.2,0c-0.1,0-0.3,0-0.4,0.1l-13.6,2.8l9.5-11.3c0.4-0.5,0.7-1.2,0.7-1.9c0-1.6-1.3-2.8-2.8-2.8
			c0,0,0,0,0,0c-0.1,0-0.2,0-0.3,0c-0.5,0.1-0.9,0.2-1.3,0.5l-13.7,9.1l3-11.9c0.1-0.3,0.1-0.5,0.1-0.8c0-1.5-1.2-2.8-2.7-2.8
			C64.3,13.9,64.3,13.9,64.2,13.9L64.2,13.9z"/>
	</g>
</g>
<g id="Layer_2_copy_2">
	<g>
		<path fill="#FFFFFF" d="M56.4,94.2c-0.7,0-1.3-0.4-1.5-1.1L49.5,77L37,92.8c-0.3,0.4-0.8,0.6-1.2,0.6c-0.2,0-0.5,0-0.7-0.1
			c-0.7-0.3-1-1-0.9-1.8l4.1-20l-19,12.9c-0.3,0.2-0.6,0.3-0.9,0.3c-0.4,0-0.8-0.2-1.1-0.5c-0.5-0.5-0.6-1.4-0.2-2l12.5-18.5
			L12,68.3c-0.1,0-0.3,0-0.4,0c-0.6,0-1.2-0.4-1.4-0.9c-0.3-0.7-0.1-1.5,0.6-2L29.1,53l-14.9-5.8c-0.7-0.3-1.1-1-1-1.7
			c0.1-0.7,0.7-1.3,1.4-1.4l18.9-2.3L22.5,22.9c-0.4-0.6-0.2-1.5,0.3-2c0.3-0.3,0.7-0.4,1.1-0.4c0.3,0,0.6,0.1,0.9,0.3l16.8,11.9
			L43.6,12c0.1-0.7,0.7-1.3,1.4-1.4c0.1,0,0.1,0,0.2,0c0.7,0,1.3,0.4,1.5,1.1l5.2,15.9l11-19.8C63.1,7.3,63.7,7,64.2,7
			c0.2,0,0.4,0,0.5,0.1c0.7,0.3,1.2,1,1,1.8l-4,19.4l16.4-13.6c0.3-0.2,0.7-0.4,1-0.4c0.4,0,0.8,0.1,1.1,0.4
			c0.6,0.5,0.7,1.4,0.2,2.1L68,35.3l17.6-4.5c0.1,0,0.3,0,0.4,0c0.6,0,1.1,0.3,1.4,0.8c0.3,0.6,0.2,1.4-0.3,1.9L71.9,47l21.4,4.2
			c0.7,0.1,1.2,0.7,1.3,1.5c0,0.7-0.4,1.4-1.1,1.6l-19.5,5.9l10.9,18c0.4,0.6,0.3,1.3-0.1,1.8c-0.3,0.4-0.8,0.6-1.2,0.6
			c-0.2,0-0.4,0-0.6-0.1L60,71.5l-2,21.2c-0.1,0.7-0.7,1.3-1.4,1.4C56.6,94.2,56.5,94.2,56.4,94.2z"/>
		<path d="M64.2,8.6L64.2,8.6 M64.2,8.6l-4.9,23.9l19.9-16.5L64.3,37.9L86,32.3L68.4,48L93,52.8l-21.5,6.5l12,19.8l-24.9-9.7
			l-2.2,23.3L50,73.7L35.7,91.8L40.6,68L18.4,83.1l14.9-21.9l-21.7,5.6l20.9-14.1l-17.7-6.8L36,43.2L23.9,22.1l19,13.4l2.2-23.3
			l6.4,19.4L64.2,8.6 M79.2,15.9L79.2,15.9 M86,32.3L86,32.3 M64.2,5.4c-0.1,0-0.2,0-0.4,0c-0.5,0.1-1,0.2-1.4,0.5
			c-0.3,0.2-0.6,0.5-0.8,0.8c-0.1,0.1-0.2,0.3-0.2,0.4l-9.2,16.6l-4.1-12.5c-0.4-1.3-1.7-2.2-3-2.2c-0.1,0-0.2,0-0.4,0
			c-1.5,0.2-2.7,1.4-2.8,2.9l-1.7,17.9L25.8,19.5c-0.6-0.4-1.2-0.6-1.8-0.6c-0.8,0-1.5,0.3-2.1,0.8c-1.1,1-1.4,2.6-0.6,3.9l9.7,17
			l-16.5,2c-1.4,0.2-2.6,1.3-2.8,2.8c-0.2,1.4,0.6,2.8,2,3.4l12.1,4.7L9.8,64.1C8.6,65,8.1,66.6,8.7,68c0.5,1.2,1.7,1.9,2.9,1.9
			c0.3,0,0.5,0,0.8-0.1L26,66.3l-10.2,15c-0.9,1.3-0.7,2.9,0.4,4c0.6,0.6,1.4,0.9,2.2,0.9c0.6,0,1.2-0.2,1.8-0.6L35.9,75l-3.3,16.2
			c-0.3,1.4,0.4,2.9,1.8,3.5c0.4,0.2,0.9,0.3,1.3,0.3c0.9,0,1.9-0.4,2.5-1.2l10.7-13.5l4.5,13.4c0.4,1.3,1.7,2.2,3,2.2
			c0.1,0,0.2,0,0.4,0c1.5-0.2,2.6-1.4,2.8-2.9l1.8-19.1l21,8.2c0.4,0.1,0.8,0.2,1.2,0.2c0.9,0,1.8-0.4,2.4-1.1c0.9-1,1-2.5,0.3-3.7
			l-9.9-16.3l17.6-5.3c1.4-0.4,2.3-1.7,2.2-3.2c-0.1-1.5-1.1-2.7-2.6-3l-18.3-3.6L88,34.7c0.7-0.6,1.1-1.4,1.1-2.4
			c0-1.7-1.3-3.1-3-3.2c-0.1,0-0.1,0-0.2,0c-0.1,0-0.2,0-0.3,0c-0.2,0-0.4,0.1-0.6,0.1l-13.5,3.5l10.1-14.9c0.4-0.5,0.6-1.2,0.6-1.9
			c0-1.8-1.4-3.2-3.2-3.2h0c-0.8,0-1.5,0.3-2,0.7L64.2,24.2l3.1-14.9c0.1-0.2,0.1-0.5,0.1-0.8c0-1.7-1.3-3.1-3-3.2
			C64.4,5.4,64.3,5.4,64.2,5.4L64.2,5.4z"/>
	</g>
</g>
<g id="Layer_2_copy" display="none">
	<g display="inline">
		<path fill="#E30E0E" d="M50.2,97.2c-1,0-1.8-0.7-1.9-1.6l-3.5-19.8l-8.9,16.7c-0.4,0.7-1,1-1.7,1c-0.2,0-0.4,0-0.7-0.1
			c-0.9-0.3-1.5-1.3-1.3-2.2l4.2-21.5L23,78.3c-0.3,0.2-0.7,0.3-1.1,0.3c-0.5,0-1-0.2-1.4-0.6c-0.7-0.7-0.8-1.7-0.2-2.5l11.4-16.9
			L12.1,57c-0.9-0.1-1.7-0.8-1.8-1.7c-0.1-0.9,0.4-1.8,1.3-2.1l19.9-7.4L19.1,32.5c-0.6-0.7-0.7-1.6-0.2-2.4c0.4-0.6,1-0.9,1.7-0.9
			c0.2,0,0.4,0,0.6,0.1L35.4,34l-5.8-20.7c-0.3-0.9,0.2-1.9,1.1-2.3c0.3-0.1,0.6-0.2,0.8-0.2c0.6,0,1.2,0.3,1.6,0.8L43,25.4L45.3,4
			c0.1-1,0.9-1.7,1.9-1.8c0,0,0,0,0.1,0c1,0,1.8,0.7,1.9,1.6l3.5,19.8L61.5,7c0.3-0.7,1-1,1.7-1c0.2,0,0.4,0,0.5,0.1
			c0.9,0.3,1.5,1.1,1.4,2l-1.4,20.1l10.5-7c0.3-0.2,0.7-0.3,1.1-0.3c0.4,0,0.8,0.1,1.2,0.4c0.7,0.5,0.9,1.4,0.7,2.2l-5.8,17.3
			l15.9,2.1c0.9,0.1,1.6,0.8,1.7,1.7s-0.3,1.7-1.2,2.1l-15.4,6.9l12.6,13.4c0.6,0.7,0.7,1.6,0.2,2.4c-0.4,0.6-1,0.9-1.7,0.9
			c-0.2,0-0.4,0-0.6-0.1l-14.6-4.6l1.9,19.8c0.1,0.9-0.4,1.7-1.3,2c-0.2,0.1-0.5,0.1-0.7,0.1c-0.6,0-1.2-0.3-1.6-0.8L56.6,72.3
			l-4.5,23.3C51.9,96.5,51.1,97.2,50.2,97.2C50.2,97.2,50.2,97.2,50.2,97.2z"/>
		<path d="M47.2,4.2l4.5,25.5L63.3,7.9L61.6,32l13.9-9.2l-6.5,19.6l18.3,2.5l-18,8l14.5,15.4l-17.5-5.5l2.2,22.8L55.6,67.4
			l-5.4,27.8l-4.5-25.5L34.1,91.6l5.1-26.1L22,76.7L35.3,57l-23.1-2L35,46.6L20.5,31.2L38.3,37l-6.7-24.3l12.9,18.1L47.2,4.2
			 M63.3,7.9L63.3,7.9 M75.4,22.8L75.4,22.8 M47.2,0.3c0,0-0.1,0-0.1,0c-2,0.1-3.6,1.6-3.8,3.5L41.6,20l-6.8-9.6
			c-0.8-1.1-2-1.7-3.2-1.7c-0.6,0-1.2,0.1-1.7,0.4c-1.7,0.8-2.6,2.8-2.1,4.6l4.8,17.2l-10.8-3.5c-0.4-0.1-0.8-0.2-1.2-0.2
			c-1.3,0-2.6,0.7-3.3,1.8c-1,1.5-0.8,3.5,0.5,4.8L28,45l-17.2,6.4c-1.7,0.6-2.8,2.4-2.5,4.2c0.3,1.8,1.7,3.2,3.6,3.4l16.4,1.4
			l-9.5,14.1c-1.1,1.6-0.9,3.6,0.4,5c0.8,0.8,1.8,1.2,2.8,1.2c0.7,0,1.5-0.2,2.1-0.6l9.5-6.1l-3.3,16.9c-0.4,1.9,0.7,3.8,2.6,4.5
			c0.4,0.2,0.9,0.2,1.3,0.2c1.4,0,2.8-0.8,3.5-2.1l6.2-11.7l2.5,14.2c0.3,1.9,2,3.2,3.9,3.3c0,0,0,0,0,0c1.9,0,3.5-1.3,3.9-3.2
			l3.6-18.8l7.5,10.6c0.8,1.1,2,1.7,3.2,1.7c0.5,0,0.9-0.1,1.4-0.3c1.7-0.6,2.7-2.3,2.5-4.1l-1.6-16.8L82.5,72
			c0.4,0.1,0.8,0.2,1.2,0.2c1.3,0,2.6-0.7,3.3-1.8c1-1.5,0.8-3.5-0.5-4.8L75.9,54.2l12.9-5.7c1.6-0.7,2.6-2.4,2.3-4.2
			c-0.3-1.7-1.6-3.1-3.4-3.4l-13.6-1.8l5-14.9c0.2-0.4,0.3-0.9,0.3-1.4c0-2.2-1.8-3.9-3.9-3.9c0,0,0,0,0,0c0,0,0,0-0.1,0
			c0,0,0,0,0,0c0,0,0,0,0,0c0,0,0,0,0,0l0,0c-0.8,0-1.5,0.3-2.2,0.7l-7.1,4.7l1.1-15.9c0-0.1,0-0.3,0-0.4c0-2.1-1.6-3.8-3.7-3.9
			c-0.1,0-0.2,0-0.2,0c-0.2,0-0.3,0-0.5,0c-0.7,0.1-1.3,0.3-1.8,0.7c-0.3,0.2-0.6,0.5-0.9,0.9c-0.1,0.2-0.2,0.4-0.3,0.6l-6.2,11.6
			L51.1,3.5C50.8,1.6,49.1,0.3,47.2,0.3L47.2,0.3z"/>
	</g>
	<g display="inline">
		<path fill="#E30E0E" d="M50.2,96.9c-0.8,0-1.5-0.6-1.6-1.4l-3.6-20.7l-9.3,17.5c-0.3,0.6-0.9,0.9-1.5,0.9c-0.2,0-0.4,0-0.6-0.1
			c-0.8-0.3-1.2-1.1-1.1-1.9L36.8,69l-14,9c-0.3,0.2-0.6,0.3-0.9,0.3c-0.4,0-0.9-0.2-1.2-0.5c-0.6-0.6-0.6-1.4-0.2-2.1l11.7-17.3
			l-20.2-1.7c-0.8-0.1-1.4-0.7-1.5-1.4c-0.1-0.8,0.3-1.5,1.1-1.8L32,45.9L19.3,32.3c-0.5-0.6-0.6-1.4-0.2-2c0.3-0.5,0.8-0.8,1.4-0.8
			c0.2,0,0.3,0,0.5,0.1l14.9,4.9L30,13.2c-0.2-0.8,0.2-1.6,0.9-1.9c0.2-0.1,0.5-0.2,0.7-0.2c0.5,0,1,0.2,1.4,0.7l10.3,14.5L45.6,4
			c0.1-0.8,0.8-1.5,1.6-1.5c0,0,0,0,0.1,0c0.8,0,1.5,0.6,1.6,1.4l3.6,20.7l9.3-17.5c0.3-0.6,0.9-0.9,1.5-0.9c0.2,0,0.3,0,0.5,0.1
			C64.5,6.5,65,7.2,64.9,8l-1.5,20.7l11.1-7.3c0.3-0.2,0.6-0.3,0.9-0.3c0.4,0,0.7,0.1,1,0.3c0.6,0.4,0.8,1.2,0.6,1.8L71.1,41
			l16.3,2.2c0.7,0.1,1.3,0.7,1.4,1.4c0.1,0.7-0.3,1.5-1,1.8l-15.8,7l12.9,13.7c0.5,0.6,0.6,1.4,0.2,2c-0.3,0.5-0.8,0.8-1.4,0.8
			c-0.2,0-0.3,0-0.5-0.1l-15.1-4.8l2,20.3c0.1,0.7-0.4,1.5-1.1,1.7c-0.2,0.1-0.4,0.1-0.6,0.1c-0.5,0-1-0.2-1.4-0.7L56.5,71.6
			l-4.6,24C51.7,96.3,51,96.9,50.2,96.9C50.2,96.9,50.2,96.9,50.2,96.9z"/>
		<path fill="#F5F514" d="M47.2,4.2l4.5,25.5L63.3,7.9L61.6,32l13.9-9.2l-6.5,19.6l18.3,2.5l-18,8l14.5,15.4l-17.5-5.5l2.2,22.8
			L55.6,67.4l-5.4,27.8l-4.5-25.5L34.1,91.6l5.1-26.1L22,76.7L35.3,57l-23.1-2L35,46.6L20.5,31.2L38.3,37l-6.7-24.3l12.9,18.1
			L47.2,4.2 M63.3,7.9L63.3,7.9 M75.4,22.8L75.4,22.8 M47.2,0.9c0,0-0.1,0-0.1,0c-1.7,0.1-3,1.3-3.2,3L42,21.7l-7.8-10.9
			c-0.6-0.9-1.7-1.4-2.7-1.4c-0.5,0-1,0.1-1.4,0.3c-1.5,0.7-2.2,2.3-1.8,3.9l5.1,18.3L21.5,28c-0.3-0.1-0.7-0.2-1-0.2
			c-1.1,0-2.2,0.6-2.8,1.5c-0.8,1.3-0.7,2.9,0.4,4.1l11,11.8l-18,6.7c-1.5,0.5-2.3,2-2.1,3.6c0.2,1.5,1.5,2.7,3,2.9l17.4,1.5
			l-10.1,15c-0.9,1.3-0.7,3.1,0.4,4.2c0.6,0.7,1.5,1,2.4,1c0.6,0,1.2-0.2,1.8-0.5l10.7-6.9l-3.6,18.4c-0.3,1.6,0.6,3.2,2.1,3.8
			c0.4,0.1,0.7,0.2,1.1,0.2c1.2,0,2.3-0.7,2.9-1.8l7-13.3l2.8,16c0.3,1.6,1.6,2.7,3.2,2.7c0,0,0,0,0,0c1.6,0,3-1.1,3.3-2.7l3.9-20.2
			l8.4,11.8c0.6,0.9,1.7,1.4,2.7,1.4c0.4,0,0.8-0.1,1.2-0.2c1.4-0.5,2.3-1.9,2.1-3.4L70,67.4l12.7,4c0.3,0.1,0.7,0.2,1,0.2
			c1.1,0,2.2-0.6,2.8-1.6c0.8-1.3,0.6-2.9-0.4-4L74.9,54l13.7-6.1c1.4-0.6,2.2-2,1.9-3.5c-0.2-1.5-1.4-2.6-2.8-2.8l-14.3-1.9
			L78.5,24c0.1-0.4,0.2-0.8,0.2-1.2c0-1.8-1.5-3.3-3.3-3.3h0c-0.7,0-1.3,0.2-1.9,0.6l-8.2,5.4l1.2-17.2c0-0.1,0-0.2,0-0.4
			c0-1.8-1.4-3.2-3.1-3.3c-0.1,0-0.1,0-0.2,0c-0.1,0-0.3,0-0.4,0c-0.6,0.1-1.1,0.3-1.6,0.6c-0.3,0.2-0.5,0.4-0.7,0.7
			c-0.1,0.1-0.2,0.3-0.3,0.5l-7,13.2l-2.8-16C50.2,2.1,48.8,0.9,47.2,0.9L47.2,0.9z"/>
	</g>
	<g display="inline">
		<path fill="#FFFFFF" d="M56.4,85.9c-0.6,0-1.1-0.3-1.3-0.9l-5.6-13.3L36.7,84.9c-0.3,0.3-0.6,0.4-1,0.4c-0.2,0-0.5-0.1-0.7-0.2
			c-0.6-0.3-0.8-1-0.7-1.6l4.1-16.1L19.1,78.1c-0.2,0.1-0.5,0.2-0.7,0.2c-0.4,0-0.8-0.2-1.1-0.5c-0.4-0.5-0.4-1.3,0-1.8l12.2-14.5
			L11.9,65c-0.1,0-0.2,0-0.3,0c-0.6,0-1.1-0.4-1.3-0.9c-0.2-0.7,0-1.4,0.7-1.7l17.9-9.8l-14.5-4.5c-0.6-0.2-1.1-0.8-1-1.5
			s0.6-1.2,1.3-1.3l18.8-1.8L22.8,28.4c-0.4-0.5-0.3-1.3,0.1-1.8c0.3-0.3,0.7-0.5,1.1-0.5c0.2,0,0.5,0.1,0.7,0.2l17.2,9.8l1.9-16.7
			c0.1-0.6,0.6-1.2,1.2-1.2c0.1,0,0.1,0,0.2,0c0.6,0,1.1,0.3,1.3,0.9l5.4,13.2L63,15.9c0.3-0.4,0.7-0.6,1.2-0.6c0.2,0,0.4,0,0.6,0.1
			c0.6,0.3,1,1,0.8,1.6l-4,15.6l16.8-11.2c0.2-0.2,0.5-0.2,0.8-0.2c0.4,0,0.8,0.2,1.1,0.5c0.5,0.5,0.5,1.3,0,1.9L68,38.1l17.7-3.7
			c0.1,0,0.2,0,0.3,0c0.6,0,1.1,0.3,1.3,0.9c0.3,0.6,0.1,1.3-0.5,1.7L71.6,47.9l11.6,3.5c0.6,0.2,1,0.7,1,1.3c0,0.6-0.3,1.2-0.9,1.4
			l-15.6,6.1l8,12.6c0.3,0.5,0.3,1.2-0.1,1.7c-0.3,0.3-0.7,0.5-1.1,0.5c-0.2,0-0.4,0-0.6-0.1l-14.1-7l-1.9,16.8
			c-0.1,0.6-0.6,1.2-1.2,1.2C56.6,85.9,56.5,85.9,56.4,85.9z"/>
		<path d="M64.2,16.7L64.2,16.7 M64.2,16.7l-4.9,19.2l19.9-13.3L64.3,40.3L86,35.9L68.4,48.5l14.4,4.3l-17.3,6.7l9,14.1l-15.9-7.8
			l-2.2,18.8L50,69.3L35.7,83.9l4.9-19.2L18.4,76.8l14.9-17.7l-21.7,4.5l20.9-11.4l-17.7-5.5l21.2-2L23.9,27.6l19,10.8l2.2-18.8
			l6.4,15.6L64.2,16.7 M79.2,22.7L79.2,22.7 M86,35.9L86,35.9 M64.2,13.9c-0.1,0-0.2,0-0.2,0c-0.5,0-0.9,0.2-1.3,0.4
			c-0.3,0.2-0.5,0.4-0.7,0.6c-0.1,0.1-0.1,0.1-0.2,0.2l-9.7,14.1l-4.4-10.7c-0.4-1.1-1.5-1.8-2.6-1.8c-0.1,0-0.3,0-0.4,0
			c-1.3,0.2-2.3,1.2-2.4,2.5l-1.7,14.5l-15.3-8.7c-0.4-0.3-0.9-0.4-1.4-0.4c-0.8,0-1.6,0.3-2.1,0.9c-0.9,1-1,2.5-0.2,3.6l9.2,13
			l-16.4,1.6c-1.3,0.1-2.4,1.2-2.6,2.5c-0.1,1.3,0.7,2.6,2,3l11.3,3.5l-15,8.2c-1.2,0.7-1.8,2.2-1.3,3.5c0.4,1.1,1.5,1.9,2.7,1.9
			c0.2,0,0.4,0,0.6-0.1l13.7-2.8L16.2,75c-0.9,1-0.9,2.6,0,3.6c0.6,0.7,1.4,1,2.2,1c0.5,0,0.9-0.1,1.4-0.4l16.4-9L33,83.2
			c-0.3,1.2,0.2,2.6,1.4,3.2c0.4,0.2,0.9,0.4,1.4,0.4c0.7,0,1.5-0.3,2-0.9l11.3-11.5l4.7,11.3c0.4,1.1,1.5,1.7,2.6,1.7
			c0.1,0,0.3,0,0.4,0c1.3-0.2,2.3-1.2,2.4-2.5L61,70l12.3,6.1c0.4,0.2,0.8,0.3,1.3,0.3c0.8,0,1.6-0.3,2.1-0.9c0.9-1,1-2.4,0.3-3.4
			l-7.1-11.1l14-5.4c1.1-0.4,1.9-1.6,1.8-2.8c0-1.2-0.9-2.3-2-2.6l-8.8-2.6l12.8-9.2c0.7-0.5,1.2-1.4,1.2-2.3c0-1.5-1.2-2.8-2.7-2.8
			c0,0-0.1,0-0.1,0c-0.1,0-0.2,0-0.2,0c-0.1,0-0.3,0-0.4,0.1l-13.6,2.8l9.5-11.3c0.4-0.5,0.7-1.2,0.7-1.9c0-1.6-1.3-2.8-2.8-2.8
			c0,0,0,0,0,0c-0.1,0-0.2,0-0.3,0c-0.5,0.1-0.9,0.2-1.3,0.5l-13.7,9.1l3-11.9c0.1-0.3,0.1-0.5,0.1-0.8c0-1.5-1.2-2.8-2.7-2.8
			C64.3,13.9,64.3,13.9,64.2,13.9L64.2,13.9z"/>
	</g>
	<text transform="matrix(1 0 0 1 -46.375 4)" display="inline" font-family="'MyriadPro-Regular'" font-size="12">rgba(227,14,14,1)</text>
</g>
</svg>
