<?xml version="1.0" encoding="utf-8"?>
<!-- Generator: Adobe Illustrator 17.1.0, SVG Export Plug-In . SVG Version: 6.00 Build 0)  -->
<!DOCTYPE svg PUBLIC "-//W3C//DTD SVG 1.1//EN" "http://www.w3.org/Graphics/SVG/1.1/DTD/svg11.dtd">
<svg version="1.1" xmlns="http://www.w3.org/2000/svg" xmlns:xlink="http://www.w3.org/1999/xlink" x="0px" y="0px" width="32px"
	 height="32px" viewBox="0 0 32 32" enable-background="new 0 0 32 32" xml:space="preserve">
<g id="dots" display="none">
</g>
<g id="waves" display="none">
</g>
<g id="circles" display="none">
</g>
<g id="sketchy" display="none">
</g>
<g id="line">
	<g>
		<polygon fill="#2A921F" points="2.7,32 32,2.7 32,1.9 1.9,32 		"/>
		<polygon fill="#2A921F" points="5,32 32,5 32,4.2 4.2,32 		"/>
		<polygon fill="#2A921F" points="7.3,32 32,7.3 32,6.5 6.5,32 		"/>
		<polygon fill="#2A921F" points="9.5,32 32,9.5 32,8.7 8.7,32 		"/>
		<polygon fill="#2A921F" points="11.8,32 32,11.8 32,11 11,32 		"/>
		<polygon fill="#2A921F" points="14.1,32 32,14.1 32,13.3 13.3,32 		"/>
		<polygon fill="#2A921F" points="16.4,32 32,16.4 32,15.6 15.6,32 		"/>
		<polygon fill="#2A921F" points="18.7,32 32,18.7 32,17.9 17.9,32 		"/>
		<polygon fill="#2A921F" points="21,32 32,21 32,20.2 20.2,32 		"/>
		<polygon fill="#2A921F" points="23.3,32 32,23.3 32,22.5 22.5,32 		"/>
		<polygon fill="#2A921F" points="25.5,32 32,25.5 32,24.7 24.7,32 		"/>
		<polygon fill="#2A921F" points="27.8,32 32,27.8 32,27 27,32 		"/>
		<polygon fill="#2A921F" points="30.1,32 32,30.1 32,29.3 29.3,32 		"/>
		<polygon fill="#2A921F" points="32,32 32,31.6 31.6,32 		"/>
		<polygon fill="#2A921F" points="2.7,0 1.9,0 0.9,0.9 0,1.9 0,2.7 1.3,1.3 		"/>
		<polygon fill="#2A921F" points="5,0 4.2,0 2.1,2.1 0,4.2 0,5 2.5,2.5 		"/>
		<polygon fill="#2A921F" points="7.3,0 6.5,0 3.2,3.2 0,6.5 0,7.3 3.6,3.6 		"/>
		<polygon fill="#2A921F" points="9.5,0 8.7,0 4.4,4.4 0,8.7 0,9.5 4.8,4.8 		"/>
		<polygon fill="#2A921F" points="11.8,0 11,0 5.5,5.5 0,11 0,11.8 5.9,5.9 		"/>
		<polygon fill="#2A921F" points="14.1,0 13.3,0 6.7,6.7 0,13.3 0,14.1 7.1,7.1 		"/>
		<polygon fill="#2A921F" points="16.4,0 15.6,0 7.8,7.8 0,15.6 0,16.4 8.2,8.2 		"/>
		<polygon fill="#2A921F" points="18.7,0 17.9,0 8.9,8.9 0,17.9 0,18.7 9.3,9.3 		"/>
		<polygon fill="#2A921F" points="21,0 20.2,0 10.1,10.1 0,20.2 0,21 10.5,10.5 		"/>
		<polygon fill="#2A921F" points="23.3,0 22.5,0 11.2,11.2 0,22.5 0,23.3 11.6,11.6 		"/>
		<polygon fill="#2A921F" points="25.5,0 24.7,0 12.4,12.4 0,24.7 0,25.5 12.8,12.8 		"/>
		<polygon fill="#2A921F" points="27.8,0 27,0 13.5,13.5 0,27 0,27.8 13.9,13.9 		"/>
		<polygon fill="#2A921F" points="30.1,0 29.3,0 14.7,14.7 0,29.3 0,30.1 15.1,15.1 		"/>
		<polygon fill="#2A921F" points="31.6,0 15.8,15.8 0,31.6 0,32 0.4,32 16.2,16.2 32,0.4 32,0 		"/>
		<polygon fill="#2A921F" points="0,0 0,0.4 0.4,0 		"/>
	</g>
</g>
<g id="digital" display="none">
</g>
<g id="triangles" display="none">
</g>
<g id="distressed" display="none">
</g>
</svg>
