<?xml version="1.0" encoding="utf-8"?>
<!-- Generator: Adobe Illustrator 17.1.0, SVG Export Plug-In . SVG Version: 6.00 Build 0)  -->
<!DOCTYPE svg PUBLIC "-//W3C//DTD SVG 1.1//EN" "http://www.w3.org/Graphics/SVG/1.1/DTD/svg11.dtd">
<svg version="1.1" id="Layer_1" xmlns="http://www.w3.org/2000/svg" xmlns:xlink="http://www.w3.org/1999/xlink" x="0px" y="0px"
	 width="32px" height="32px" viewBox="0 0 32 32" enable-background="new 0 0 32 32" xml:space="preserve">
<g>
	<polygon points="2.7,32 32,2.7 32,1.9 1.9,32 	"/>
	<polygon points="7.3,32 32,7.3 32,6.5 6.5,32 	"/>
	<polygon points="11.8,32 32,11.8 32,11 11,32 	"/>
	<polygon points="16.4,32 32,16.4 32,15.6 15.6,32 	"/>
	<polygon points="21,32 32,21 32,20.2 20.2,32 	"/>
	<polygon points="25.5,32 32,25.5 32,24.7 24.7,32 	"/>
	<polygon points="30.1,32 32,30.1 32,29.3 29.3,32 	"/>
	<polygon points="2.7,0 1.9,0 0.9,0.9 0,1.9 0,2.7 1.3,1.3 	"/>
	<polygon points="7.3,0 6.5,0 3.2,3.2 0,6.5 0,7.3 3.6,3.6 	"/>
	<polygon points="11.8,0 11,0 5.5,5.5 0,11 0,11.8 5.9,5.9 	"/>
	<polygon points="16.4,0 15.6,0 7.8,7.8 0,15.6 0,16.4 8.2,8.2 	"/>
	<polygon points="21,0 20.2,0 10.1,10.1 0,20.2 0,21 10.5,10.5 	"/>
	<polygon points="25.5,0 24.7,0 12.4,12.4 0,24.7 0,25.5 12.8,12.8 	"/>
	<polygon points="30.1,0 29.3,0 14.7,14.7 0,29.3 0,30.1 15.1,15.1 	"/>
</g>
</svg>
